<?xml version="1.0"?>
<svg xmlns="http://www.w3.org/2000/svg" xmlns:xlink="http://www.w3.org/1999/xlink" xmlns:svgjs="http://svgjs.com/svgjs" version="1.1" width="512" height="512" x="0" y="0" viewBox="0 0 600.258 600.258" style="enable-background:new 0 0 512 512" xml:space="preserve" class=""><g><g><g id="Page-1_8_"><g id="_x30_09---Search-Document"><path id="Shape_20_" d="m448.825 250.902c-47.207-47.212-121.19-54.502-176.704-17.413s-77.099 108.228-51.553 169.911 91.107 96.732 156.589 83.711 112.648-70.484 112.652-137.248c-.015-37.113-14.755-72.704-40.984-98.961zm-14.145 183.778c-40.467 40.464-103.882 46.708-151.463 14.912s-66.076-92.774-44.174-145.643 78.101-82.906 134.227-71.739c56.127 11.167 96.549 60.426 96.546 117.653-.016 31.81-12.653 62.314-35.136 84.817z" fill="#cacaca" data-original="#000000" class=""/><path id="Path_23_" clip-rule="evenodd" d="m349.863 249.902c-26.522-.07-51.97 10.473-70.672 29.279-2.599 2.51-3.641 6.226-2.726 9.721s3.644 6.224 7.139 7.139 7.212-.127 9.721-2.726c14.96-15.047 35.32-23.481 56.538-23.421 5.521 0 9.996-4.475 9.996-9.996 0-5.52-4.475-9.996-9.996-9.996z" fill-rule="evenodd" fill="#cacaca" data-original="#000000" class=""/><path id="Shape_19_" d="m537.37 480.812c-3.731-3.77-8.82-5.885-14.124-5.868-1.728.023-3.445.272-5.108.74l-21.702-21.702c31.684-44.412 41.454-100.821 26.552-153.302-14.901-52.481-52.858-95.338-103.153-116.473v-154.219c.001-16.562-13.425-29.988-29.987-29.988h-261.598c-7.993-.028-15.663 3.151-21.292 8.827l-98.131 98.131c-5.674 5.63-8.853 13.3-8.827 21.292v341.566c0 16.562 13.426 29.988 29.988 29.988h220.424c62.02 41.093 142.945 39.733 203.55-3.419l21.732 21.741c-.46 1.661-.705 3.375-.73 5.098-.014 5.305 2.095 10.395 5.858 14.134l50.69 50.69c10.039 10.394 24.905 14.563 38.885 10.904s24.897-14.577 28.556-28.556-.509-28.846-10.904-38.885zm-427.413-446.685v65.834c0 5.521-4.475 9.996-9.996 9.996h-65.834zm-79.969 445.686c-5.521 0-9.996-4.475-9.996-9.996v-339.868h79.969c16.562 0 29.988-13.426 29.988-29.988v-79.969h259.898c5.521 0 9.996 4.475 9.996 9.996v147.122c-78.847-22.826-163.145 10.621-204.895 81.295s-30.36 160.647 27.684 218.688c1 1 1.999 1.779 2.999 2.719h-195.643zm206.79-16.854c-45.746-45.74-59.433-114.534-34.679-174.301s83.074-98.737 147.765-98.737 123.011 38.97 147.765 98.737 11.067 128.56-34.679 174.301c-29.851 30.257-70.582 47.29-113.086 47.29s-83.235-17.033-113.086-47.29zm240.316 14.135c2.379-2.379 4.498-4.938 6.727-7.417l18.203 18.203-14.154 14.154-18.213-18.223c2.479-2.229 5.048-4.328 7.437-6.717zm96.822 96.822c-7.909 7.555-20.36 7.555-28.269 0l-50.69-50.69 28.269-28.269 50.69 50.69c7.804 7.807 7.804 20.462 0 28.269z" fill="#cacaca" data-original="#000000" class=""/><g clip-rule="evenodd" fill-rule="evenodd"><path id="Path_22_" d="m169.934 99.961h189.926c5.521 0 9.996-4.475 9.996-9.996s-4.475-9.996-9.996-9.996h-189.926c-5.521 0-9.996 4.475-9.996 9.996s4.475 9.996 9.996 9.996z" fill="#cacaca" data-original="#000000" class=""/><path id="Path_21_" d="m169.934 149.942h189.926c5.521 0 9.996-4.475 9.996-9.996s-4.475-9.996-9.996-9.996h-189.926c-5.521 0-9.996 4.475-9.996 9.996 0 5.52 4.475 9.996 9.996 9.996z" fill="#cacaca" data-original="#000000" class=""/><path id="Path_20_" d="m59.977 199.922h139.945c5.521 0 9.996-4.475 9.996-9.996s-4.475-9.996-9.996-9.996h-139.945c-5.521 0-9.996 4.475-9.996 9.996s4.475 9.996 9.996 9.996z" fill="#cacaca" data-original="#000000" class=""/><path id="Path_19_" d="m159.938 229.91h-99.961c-5.521 0-9.996 4.475-9.996 9.996s4.475 9.996 9.996 9.996h99.961c5.521 0 9.996-4.475 9.996-9.996 0-5.52-4.476-9.996-9.996-9.996z" fill="#cacaca" data-original="#000000" class=""/><path id="Path_18_" d="m139.945 279.891h-79.968c-5.521 0-9.996 4.475-9.996 9.996s4.475 9.996 9.996 9.996h79.969c5.521 0 9.996-4.475 9.996-9.996s-4.476-9.996-9.997-9.996z" fill="#cacaca" data-original="#000000" class=""/><path id="Path_17_" d="m59.977 349.863h69.973c5.521 0 9.996-4.475 9.996-9.996s-4.475-9.996-9.996-9.996h-69.973c-5.521 0-9.996 4.475-9.996 9.996s4.475 9.996 9.996 9.996z" fill="#cacaca" data-original="#000000" class=""/><path id="Path_16_" d="m59.977 399.844h69.973c5.521 0 9.996-4.475 9.996-9.996s-4.475-9.996-9.996-9.996h-69.973c-5.521 0-9.996 4.475-9.996 9.996s4.475 9.996 9.996 9.996z" fill="#cacaca" data-original="#000000" class=""/><path id="Path_15_" d="m139.945 429.832h-79.968c-5.521 0-9.996 4.475-9.996 9.996s4.475 9.996 9.996 9.996h79.969c5.521 0 9.996-4.475 9.996-9.996 0-5.52-4.476-9.996-9.997-9.996z" fill="#cacaca" data-original="#000000" class=""/></g></g></g></g></g></svg>
