<?xml version="1.0"?>
<svg xmlns="http://www.w3.org/2000/svg" xmlns:xlink="http://www.w3.org/1999/xlink" xmlns:svgjs="http://svgjs.com/svgjs" version="1.1" width="512" height="512" x="0" y="0" viewBox="0 0 511.971 511.971" style="enable-background:new 0 0 512 512" xml:space="preserve" class=""><g><g><path d="m506.264 175.192c-6.208-13.315-17.23-23.415-31.035-28.439-13.805-5.026-28.74-4.373-42.055 1.835l-14.716 6.862c-12.074 5.631-21.144 15.117-26.436 26.313l-17.448-37.418 63.934-83.416c6.157-8.033 8.818-17.983 7.492-28.017-1.327-10.035-6.482-18.952-14.516-25.108-16.584-12.711-40.416-9.56-53.127 7.024l-40.758 53.179-6.113-13.043c-5.066-10.865-14.062-19.107-25.328-23.208-11.265-4.1-23.454-3.567-34.32 1.499s-19.108 14.062-23.208 25.327c-3.447 9.471-3.62 19.594-.578 29.034-7.209-.375-14.517.987-21.3 4.15-10.866 5.066-19.108 14.062-23.208 25.327s-3.568 23.454 1.507 34.338l19.273 41.122-36.029-37.962c-11.231-11.834-28.714-15.151-43.499-8.257l-122.37 57.062c-9.173 4.277-16.132 11.871-19.593 21.383-3.462 9.511-3.013 19.801 1.265 28.975 4.277 9.173 11.871 16.131 21.382 19.593 9.511 3.463 19.801 3.013 28.974-1.265l97.648-45.534 34.368 36.212 17.088 36.645-123.674 57.67c-6.982 3.256-12.739 8.486-16.647 15.129l-48.637 82.67c-6.327 10.756-6.953 23.934-1.674 35.253 3.249 6.967 8.477 12.714 15.12 16.622 6.02 3.542 12.625 5.226 19.15 5.225 12.996-.001 25.67-6.682 32.724-18.67l42.665-72.52 244.18-113.863 10.077 21.61-68.175 31.791c-18.936 8.83-27.158 31.42-18.328 50.355 4.277 9.174 11.871 16.133 21.382 19.595 9.511 3.461 19.8 3.012 28.974-1.266l102.516-47.806c18.936-8.83 27.158-31.42 18.328-50.356v-.001l-33.744-72.365c4.542 1.192 9.243 1.816 13.991 1.816 7.771 0 15.665-1.654 23.16-5.149l14.716-6.862c13.314-6.209 23.414-17.23 28.439-31.036 5.024-13.806 4.372-28.742-1.837-42.055zm-283.097-32.232c-2.809-6.023-3.104-12.781-.831-19.026 2.273-6.246 6.843-11.232 12.867-14.041 8.298-3.87 18.023-2.875 25.382 2.591 3.674 2.729 8.734 2.617 12.283-.277 3.548-2.894 4.679-7.826 2.744-11.976l-7.358-15.782c-5.798-12.435-.399-27.27 12.036-33.068 12.434-5.801 27.27-.4 33.077 12.054l10.524 22.455-23.447 30.593c-8.622 11.25-10.257 26.219-4.267 39.064l16.556 35.504-55.006 25.649zm220.246 196.334c4.169 8.942.287 19.609-8.655 23.779l-102.518 47.805c-4.332 2.019-9.191 2.231-13.681.598-4.491-1.635-8.077-4.921-10.097-9.253-4.169-8.941-.287-19.608 8.654-23.777l77.238-36.017c5.005-2.335 7.171-8.284 4.837-13.29l-18.529-39.736c-1.121-2.403-3.15-4.264-5.643-5.17-2.492-.907-5.242-.788-7.646.333l-256.06 119.402c-1.834.855-3.367 2.248-4.393 3.993l-44.24 75.198c-5.003 8.504-15.992 11.353-24.495 6.35-3.138-1.846-5.605-4.556-7.136-7.837-2.496-5.352-2.202-11.578.787-16.658l48.636-82.67c1.846-3.137 4.563-5.606 7.861-7.144l132.738-61.896c5.005-2.334 7.171-8.284 4.837-13.29l-22.002-47.184c-.456-.978-1.067-1.875-1.81-2.657l-40.445-42.615c-1.932-2.036-4.572-3.116-7.256-3.116-1.428 0-2.87.306-4.223.937l-104.173 48.575c-4.331 2.021-9.189 2.231-13.681.598-4.491-1.635-8.077-4.92-10.097-9.251-2.02-4.332-2.232-9.191-.597-13.683 1.634-4.491 4.92-8.076 9.251-10.096l122.37-57.062c6.983-3.257 15.237-1.689 20.54 3.898l67.119 70.721c2.959 3.119 7.583 3.996 11.479 2.18l77.863-36.308c5.005-2.334 7.171-8.284 4.837-13.29l-20.782-44.567c-2.828-6.065-2.056-13.133 2.015-18.445l77.911-101.654c6.002-7.832 17.255-9.319 25.087-3.316 3.794 2.907 6.228 7.117 6.854 11.854.626 4.738-.63 9.437-3.538 13.23l-67.623 88.229c-2.267 2.958-2.701 6.932-1.126 10.31zm45.893-128.888c-3.197 8.784-9.625 15.799-18.097 19.749l-14.716 6.862c-17.49 8.155-38.355.562-46.512-16.929v.001c-8.156-17.491-.561-38.356 16.929-46.513l14.716-6.862c8.473-3.952 17.976-4.365 26.762-1.169 8.785 3.198 15.799 9.625 19.75 18.099 3.951 8.473 4.366 17.977 1.168 26.762z" fill="#cacaca" data-original="#000000" class=""/></g></g></svg>
