<?xml version="1.0"?>
<svg xmlns="http://www.w3.org/2000/svg" xmlns:xlink="http://www.w3.org/1999/xlink" xmlns:svgjs="http://svgjs.com/svgjs" version="1.1" width="512" height="512" x="0" y="0" viewBox="0 0 480 480" style="enable-background:new 0 0 512 512" xml:space="preserve" class=""><g><path d="m168 392h144v16h-144zm0 0" fill="#cacaca" data-original="#000000" class=""/><path d="m216 200h48v16h-48zm0 0" fill="#cacaca" data-original="#000000" class=""/><path d="m480 40v-32c0-4.417969-3.582031-8-8-8h-464c-4.417969 0-8 3.582031-8 8v32c0 4.417969 3.582031 8 8 8v384c-4.417969 0-8 3.582031-8 8v32c0 4.417969 3.582031 8 8 8h464c4.417969 0 8-3.582031 8-8v-32c0-4.417969-3.582031-8-8-8v-384c4.417969 0 8-3.582031 8-8zm-464-24h448v16h-448zm360 416v-76.105469c4.265625-3.144531 7.082031-7.875 7.820312-13.121093.738282-5.246094-.664062-10.570313-3.890624-14.773438 5.398437-7.078125 5.429687-16.886719.070312-24 5.410156-7.09375 5.378906-16.9375-.070312-24 3.230468-4.199219 4.636718-9.523438 3.898437-14.773438s-3.5625-9.980468-7.828125-13.121093v-204.105469h48v384zm-272-384v204.105469c-4.261719 3.148437-7.078125 7.878906-7.8125 13.128906-.730469 5.246094.679688 10.570313 3.917969 14.765625-5.476563 7.0625-5.476563 16.9375 0 24-5.476563 7.0625-5.476563 16.9375 0 24-3.238281 4.195312-4.648438 9.519531-3.917969 14.765625.734375 5.25 3.550781 9.980469 7.8125 13.128906v76.105469h-48v-384zm234.609375 271.71875c-1.558594-.578125-2.597656-2.058594-2.609375-3.71875.027344-1.734375 1.15625-3.261719 2.808594-3.792969.378906-.144531.785156-.21875 1.191406-.207031h24c.476562-.003906.953125.09375 1.390625.28125 1.558594.578125 2.597656 2.058594 2.609375 3.71875-.011719 1.734375-1.140625 3.261719-2.792969 3.785156-.382812.148438-.792969.222656-1.207031.214844h-24c-.476562 0-.949219-.097656-1.390625-.28125zm29.390625-27.71875c-.011719 1.734375-1.140625 3.261719-2.792969 3.785156-.382812.148438-.792969.222656-1.207031.214844h-24c-.476562 0-.949219-.097656-1.390625-.28125-1.558594-.578125-2.597656-2.058594-2.609375-3.71875.03125-.960938.398438-1.878906 1.039062-2.59375.703126-.917969 1.804688-1.445312 2.960938-1.40625h24c2.210938 0 4 1.789062 4 4zm-48 8c0 2.210938-1.789062 4-4 4s-4-1.789062-4-4v-16c.011719-1.039062.417969-2.03125 1.136719-2.785156 1.089843-1.089844 2.707031-1.457032 4.160156-.945313s2.484375 1.8125 2.648437 3.347657c0 .167968 0 .335937.054688.496093zm20 44c-2.210938 0-4-1.789062-4-4s1.789062-4 4-4h24c2.210938 0 4 1.789062 4 4s-1.789062 4-4 4zm0-72c-2.210938 0-4-1.789062-4-4s1.789062-4 4-4h24c2.210938 0 4 1.789062 4 4s-1.789062 4-4 4zm20-24h-16v-200h16zm-32 4.105469c-4.027344 3.019531-6.757812 7.453125-7.648438 12.40625-5.050781-1.191407-10.371093-.289063-14.742187 2.503906l-33.609375-9.128906v-9.597657c24.496094-12.058593 40.007812-36.988281 40-64.289062v-8c4.417969 0 8-3.582031 8-8v-24c.171875-37.429688-25.761719-69.921875-62.296875-78.054688-11.679687-2.601562-23.789063-2.601562-35.472656 0-36.515625 8.148438-62.417969 40.640626-62.230469 78.054688v24c0 4.417969 3.582031 8 8 8v8c-.03125 19.105469 7.550781 37.433594 21.0625 50.9375 5.550781 5.484375 11.941406 10.039062 18.9375 13.496094v9.453125l-33.601562 9.121093c-3.117188-1.949218-6.71875-2.988281-10.398438-3.007812-1.464844.007812-2.925781.179688-4.351562.511719-.890626-4.953125-3.621094-9.386719-7.648438-12.40625v-204.105469h176zm-24-92.503907c-13.015625-1.824218-24.292969-9.960937-30.128906-21.738281l-2.710938-5.4375c-1.152344-2.296875-3.332031-3.902343-5.867187-4.3125-2.535157-.414062-5.113281.417969-6.933594 2.230469l-13.28125 13.28125c-10.46875 10.523438-24.714844 16.417969-39.558594 16.375h-29.519531v-16c.152344-29.789062 20.703125-55.589844 49.703125-62.398438 9.398437-2.074218 19.132813-2.074218 28.527344 0 29.019531 6.792969 49.601562 32.59375 49.769531 62.398438zm-120 16.398438h21.519531c19.085938.054688 37.398438-7.53125 50.855469-21.0625l5.601562-5.601562c7.617188 12.46875 19.839844 21.433593 34.023438 24.953124v9.710938c.050781 22.847656-13.816406 43.421875-35.007812 51.953125-2.261719.90625-4.578126 1.671875-6.9375 2.285156-19.207032 4.972657-39.613282-.578125-53.664063-14.589843-10.507813-10.515626-16.40625-24.78125-16.390625-39.648438zm40 88v-9.871094c10.519531 2.5 21.480469 2.5 32 0v9.871094c.027344 2.292969 1.046875 4.460938 2.792969 5.945312l-18.792969 15.65625-18.792969-15.632812c1.753907-1.492188 2.773438-3.667969 2.792969-5.96875zm-80 76c0 2.210938-1.789062 4-4 4h-24c-2.210938 0-4-1.789062-4-4s1.789062-4 4-4h24c2.210938 0 4 1.789062 4 4zm-32-72c0-2.210938 1.789062-4 4-4h24c2.210938 0 4 1.789062 4 4s-1.789062 4-4 4h-24c-2.210938 0-4-1.789062-4-4zm32 48c0 2.210938-1.789062 4-4 4h-24c-2.210938 0-4-1.789062-4-4s1.789062-4 4-4h24c2.210938 0 4 1.789062 4 4zm-32-24c0-2.210938 1.789062-4 4-4h24c2.210938 0 4 1.789062 4 4s-1.789062 4-4 4h-24c-2.210938 0-4-1.789062-4-4zm48-8c0-2.210938 1.789062-4 4-4s4 1.789062 4 4v16c0 2.210938-1.789062 4-4 4s-4-1.789062-4-4zm-24-36h-16v-200h16zm-16 112h16v72h-16zm32-4.105469c4.261719-3.148437 7.078125-7.878906 7.8125-13.128906.730469-5.246094-.679688-10.570313-3.917969-14.765625 1.914063-2.496094 3.199219-5.414062 3.753907-8.511719 1.425781.332031 2.886718.503907 4.351562.511719 11.046875 0 20-8.953125 20-20v-16c-.023438-.984375-.125-1.964844-.296875-2.9375l19.496094-5.292969 31.671875 26.398438c2.96875 2.480469 7.289062 2.480469 10.257812 0l31.671875-26.398438 19.480469 5.292969c-.167969.972656-.261719 1.953125-.28125 2.9375v16c-.035156 6.074219 2.710938 11.835938 7.453125 15.632812 4.742187 3.800782 10.960937 5.222657 16.882813 3.863282.550781 3.105468 1.828124 6.035156 3.726562 8.550781-3.214844 4.199219-4.609375 9.515625-3.867188 14.75.738282 5.238281 3.550782 9.957031 7.804688 13.097656v76.105469h-176zm192 4.105469h16v72h-16zm-320-312h16v384h-16zm440 416h-448v-16h448zm-8-32h-16v-384h16zm0 0" fill="#cacaca" data-original="#000000" class=""/><path d="m184 328h112v16h-112zm0 0" fill="#cacaca" data-original="#000000" class=""/><path d="m168 360h144v16h-144zm0 0" fill="#cacaca" data-original="#000000" class=""/></g></svg>
