<?xml version="1.0"?>
<svg xmlns="http://www.w3.org/2000/svg" xmlns:xlink="http://www.w3.org/1999/xlink" xmlns:svgjs="http://svgjs.com/svgjs" version="1.1" width="512" height="512" x="0" y="0" viewBox="0 0 53 53" style="enable-background:new 0 0 512 512" xml:space="preserve" class=""><g><g id="_x39_0"><path d="m5.6376662 45.6103516h1.7402344v1.75c0 1.7314453 1.4082026 3.1396484 3.139648 3.1396484h27.5400391c.7553711 0 1.4921875-.2783203 2.0751953-.7841797.4169922-.3618164.4619141-.9936523.1000977-1.4106445-.3623047-.4174805-.9941406-.4614258-1.4106445-.1000977-.1552745.1347657-.4135753.2949219-.7646495.2949219h-27.5400381c-.628418 0-1.1396484-.5112305-1.1396484-1.1396484v-1.7402344h23.9296875c.5522461 0 1-.4477539 1-1s-.4477539-1-1-1c-2.8292389-.0009995 10.2490654.0036163-27.66992-.0097656-.6289063 0-1.1401367-.5073242-1.1401367-1.1303711v-36.8496094c-.0000015-.6230469.511229-1.1303711 1.1401352-1.1303711h19.2446289v6.2915039c0 1.7294922 1.4072266 3.1367188 3.1367188 3.1367188h6.2885723v2.4018555c0 .5522461.4477539 1 1 1h.0102539c.5522461 0 1-.4477539 1-1v-3.3999023c0-.1852503-.1002769-.5128746-.2963867-.7089844l-2.8406982-2.8408203h4.8768311c.6230469 0 1.1303711.5112305 1.1303711 1.1396484v10.0200195c0 .5522461.4477539 1 1 1s1-.4477539 1-1v-10.0200196c0-1.7314453-1.4042969-3.1396484-3.1303711-3.1396484h-6.8767071l-4.5915527-4.5917969c-.1798207-.179821-.4798657-.2885742-.7114254-.2885742h-20.2402349c-1.7314453 0-3.1401367 1.4042969-3.1401367 3.1303711v36.8496094c0 1.7260742 1.4086914 3.1303711 3.1401367 3.1303711zm21.2446294-34.8188477v-4.8729248c.1001568.1001644 6.3955975 6.3959866 6.0092754 6.0096436h-4.8725567c-.6269531 0-1.1367187-.5097657-1.1367187-1.1367188z" fill="#cacaca" data-original="#000000" class=""/><path d="m7.4076858 17.9174805h23.1220703c.5522461 0 1-.4477539 1-1s-.4477539-1-1-1h-23.1220703c-.5522461 0-1 .4477539-1 1s.4477539 1 1 1z" fill="#cacaca" data-original="#000000" class=""/><path d="m7.4076858 8.4013672h14.296875c.5522461 0 1-.4477539 1-1s-.4477539-1-1-1h-14.296875c-.5522461 0-1 .4477539-1 1s.4477539 1 1 1z" fill="#cacaca" data-original="#000000" class=""/><path d="m7.4076858 13.1591797h14.296875c.5522461 0 1-.4477539 1-1s-.4477539-1-1-1h-14.296875c-.5522461 0-1 .4477539-1 1s.4477539 1 1 1z" fill="#cacaca" data-original="#000000" class=""/><path d="m7.4076858 22.6801758h19.4501953c.5522461 0 1-.4477539 1-1s-.4477539-1-1-1h-19.4501953c-.5522461 0-1 .4477539-1 1s.4477539 1 1 1z" fill="#cacaca" data-original="#000000" class=""/><path d="m7.4076858 27.4301758h14.7001953c.5522461 0 1-.4477539 1-1s-.4477539-1-1-1h-14.7001953c-.5522461 0-1 .4477539-1 1s.4477539 1 1 1z" fill="#cacaca" data-original="#000000" class=""/><path d="m7.4076858 32.1904297h8.8701172c.5522461 0 1-.4477539 1-1s-.4477539-1-1-1h-8.8701172c-.5522461 0-1 .4477539-1 1s.4477539 1 1 1z" fill="#cacaca" data-original="#000000" class=""/><path d="m7.4076858 36.9501953h9.2402344c.5522461 0 1-.4477539 1-1s-.4477539-1-1-1h-9.2402344c-.5522461 0-1 .4477539-1 1s.4477539 1 1 1z" fill="#cacaca" data-original="#000000" class=""/><path d="m7.4076858 41.7104492h13.6699219c.5522461 0 1-.4477539 1-1s-.4477539-1-1-1h-13.6699219c-.5522461 0-1 .4477539-1 1s.4477539 1 1 1z" fill="#cacaca" data-original="#000000" class=""/><path d="m40.9257507 29.4980469c1.097168-1.097168 1.097168-2.8823242 0-3.9794922l-5.7719727-5.7719727c-1.0976563-1.097168-2.8837891-1.0976563-3.9804668.0009766-.7070923.7070923-.9516602 1.6984253-.7473755 2.6087036l-8.0626221 8.0626221c-.9107666-.2042236-1.9025879.0405884-2.609436.7481079-1.097168 1.097168-1.097168 2.8823242 0 3.9794922l5.7719727 5.7719727c1.0966587 1.0966606 2.8828087 1.0976601 3.9804688-.0009766.7070923-.7070923.9516602-1.6984253.7473755-2.6087036l1.8842144-1.8842163 8.9182129 8.9182129c0 .003418 0 .0068359.0004883.0107422.0507813.6767578.3525391 1.3232422.8500977 1.8212891.2148438.2138672.4511719.3891602.706543.5244141.2661858.5025749.703434.9522514 1.2324219 1.2324219.1352539.2558594.3110352.4926758.5253906.7075195 1.1052971 1.1031456 2.7585564 1.1214714 3.715332.1625977l1.7226563-1.722168c.9703979-.9703979.9279556-2.6237183-.1630859-3.7158203-.2143555-.2143555-.4511719-.3901367-.7070313-.5253906-.273304-.5160217-.7158775-.9588432-1.2324219-1.2324219-.1352539-.2553711-.3110352-.4921875-.5258789-.7075195-.5053711-.5048828-1.1621094-.8041992-1.8305664-.8496094l-8.9182129-8.9182129 1.8841553-1.8841553c1.0032576.2249812 1.9574812-.0961515 2.609741-.7484132zm4.1655274 13.5502929c.2324219-.0288086.4770508.0668945.6748047.2641602.1098633.1098633.1860352.2304688.2270508.3588867.0986328.3081055.3398438.5493164.6479492.6479492.2639656.0843086.5040436.3310814.5834961.5830078.0981445.3085938.340332.5507813.6489258.6494141.3184204.1013145.6046486.4386139.6279297.7749023.0068359.0986328-.0058594.237793-.1064453.3383789l-1.7231445 1.7226563c-.1000977.1001167-.2387695.1113281-.3378906.1064453-.3378143-.0233879-.6738892-.310463-.7749023-.6279297-.0986328-.3081055-.3398438-.5493164-.6479492-.6479492-.2637863-.0842514-.5031128-.3297462-.5844727-.5844727-.0986328-.3081055-.3398438-.5493164-.6479492-.6479492-.128418-.0410156-.2490234-.1171875-.3583984-.2260742-.1611328-.1611328-.2539063-.3535156-.2680664-.534668-.003418-.0615234.0014648-.1162109.0078125-.1743164.0341797-.3022461-.0712891-.6040039-.2866211-.8188477l-9.2211914-9.2211914 1.4658203-1.4658203 9.2211914 9.2211914c.2236326.2236329.5395506.3305665.8520506.2822266zm-12.5029297-21.8876953c.3175888-.3175888.8330917-.3182774 1.1513672 0l5.7719727 5.7719727c.3173828.3173828.3168945.8344727-.0009766 1.1523438-.3076172.3076172-.84375.3076172-1.1513672 0l-5.7719727-5.7719727c-.3173828-.3173828-.3168945-.8344727.0009766-1.1523438zm-4.4970684 18.34375c-.3076172.3076172-.84375.3076172-1.1513672 0l-5.7719727-5.7719727c-.3173828-.3173828-.3168945-.8344727.0009766-1.1523438.1538086-.1538086.3583984-.2382813.5756836-.2382813s.421875.0844727.5756836.2382813l5.7719727 5.7719727c.3173828.3173829.3168945.8344727-.0009766 1.1523438zm1.0600586-2.9213867-5.0620117-5.0620117 7.4389648-7.4389648 5.0620098 5.0620117z" fill="#cacaca" data-original="#000000" class=""/></g></g></svg>
