<?xml version="1.0"?>
<svg xmlns="http://www.w3.org/2000/svg" xmlns:xlink="http://www.w3.org/1999/xlink" xmlns:svgjs="http://svgjs.com/svgjs" version="1.1" width="512" height="512" x="0" y="0" viewBox="0 0 512 512" style="enable-background:new 0 0 512 512" xml:space="preserve" class=""><g><g><path d="m117.93 212.882c44.518 0 80.735-36.218 80.735-80.735-4.059-106.959-157.428-106.93-161.471.001.001 44.517 36.218 80.734 80.736 80.734zm0-146.47c36.246 0 65.735 29.489 65.735 65.735-3.305 87.087-128.179 87.063-131.471-.001.001-36.245 29.49-65.734 65.736-65.734z" fill="#cacaca" data-original="#000000" class=""/><path d="m88.253 151.42c-2.078-3.583-6.667-4.803-10.251-2.725-3.583 2.078-4.804 6.667-2.726 10.25 8.808 15.186 25.151 24.62 42.654 24.62 17.502 0 33.845-9.433 42.652-24.618 2.078-3.583.857-8.172-2.726-10.25-3.583-2.079-8.172-.858-10.251 2.725-6.133 10.575-17.504 17.144-29.676 17.144-12.171-.001-23.543-6.57-29.676-17.146z" fill="#cacaca" data-original="#000000" class=""/><path d="m74.882 133.069c2.894 2.893 7.713 2.893 10.607 0l5.357-5.357 5.357 5.357c2.894 2.894 7.713 2.893 10.607 0 2.929-2.929 2.929-7.678 0-10.606l-5.358-5.358 5.358-5.358c2.929-2.929 2.929-7.678 0-10.606-2.93-2.929-7.678-2.929-10.607 0l-5.357 5.357-5.357-5.357c-2.93-2.929-7.678-2.93-10.607 0-2.929 2.929-2.929 7.678 0 10.606l5.358 5.358-5.358 5.358c-2.929 2.929-2.929 7.678 0 10.606z" fill="#cacaca" data-original="#000000" class=""/><path d="m129.049 133.069c2.894 2.893 7.713 2.893 10.607 0l5.357-5.357 5.357 5.357c2.894 2.894 7.713 2.893 10.607 0 2.929-2.929 2.929-7.678 0-10.606l-5.358-5.358 5.358-5.358c2.929-2.929 2.929-7.678 0-10.606-2.93-2.929-7.678-2.929-10.607 0l-5.357 5.357-5.357-5.357c-2.93-2.929-7.678-2.93-10.607 0-2.929 2.929-2.929 7.678 0 10.606l5.358 5.358-5.358 5.358c-2.929 2.929-2.929 7.678 0 10.606z" fill="#cacaca" data-original="#000000" class=""/><path d="m137.492 417.077c6.745 4.23 16.046 3.129 21.645-2.47l250.984-250.981c21.372 19.247 50.306-9.721 30.734-30.956 0 0-9.476-9.476-9.476-9.476l33.91-33.91 9.476 9.476c8.409 8.408 22.438 8.409 30.847 0s8.41-22.438.001-30.847l-61.519-61.518c-8.409-8.408-22.438-8.409-30.847 0s-8.41 22.438-.001 30.848l9.476 9.476-33.911 33.91-9.477-9.477c-21.133-19.6-50.399 9.482-30.956 30.734l-112.519 112.518v-206.904c0-4.142-3.357-7.5-7.5-7.5h-25.521c-4.143 0-7.5 3.358-7.5 7.5 0 7.363-5.99 13.354-13.354 13.354s-13.354-5.991-13.354-13.354c0-4.142-3.357-7.5-7.5-7.5h-22.347c-4.143 0-7.5 3.358-7.5 7.5 0 7.363-5.99 13.354-13.354 13.354s-13.354-5.99-13.354-13.354c0-4.142-3.357-7.5-7.5-7.5h-22.344c-4.143 0-7.5 3.358-7.5 7.5 0 7.363-5.99 13.354-13.354 13.354s-13.353-5.991-13.353-13.354c0-4.142-3.357-7.5-7.5-7.5h-25.523c-4.143 0-7.5 3.358-7.5 7.5v51.412c0 4.142 3.357 7.5 7.5 7.5s7.5-3.358 7.5-7.5v-43.912h11.529c7.827 27.638 46.877 27.62 54.693 0h9.359c7.827 27.638 46.877 27.62 54.693 0h9.36c7.827 27.638 46.877 27.62 54.693 0h11.528v214.404c-4.643 4.642-9.285 9.285-13.928 13.927-12.052-22.375-45.572-18.54-52.294 5.963h-9.36c-7.827-27.638-46.877-27.62-54.693 0h-9.359c-7.827-27.638-46.877-27.62-54.693 0h-11.528v-150.081c0-4.142-3.357-7.5-7.5-7.5s-7.5 3.358-7.5 7.5v157.581c0 4.142 3.357 7.5 7.5 7.5h25.522c4.143 0 7.5-3.358 7.5-7.5.684-17.71 26.042-17.67 26.707 0 0 4.142 3.357 7.5 7.5 7.5h22.346c4.143 0 7.5-3.358 7.5-7.5 0-7.363 5.99-13.354 13.354-13.354s13.354 5.99 13.354 13.354c0 4.142 3.357 7.5 7.5 7.5h22.347c4.143 0 7.5-3.358 7.5-7.5.458-16.634 24.01-18.076 26.589-1.751l-97.824 97.823c-5.598 5.6-6.703 14.895-2.469 21.645l-8.153 8.153c-6.839 6.84-6.839 17.97.001 24.81l3.574 3.574-88.15 88.149c-2.929 2.929-2.929 7.678 0 10.606 2.894 2.894 7.713 2.893 10.607 0l88.15-88.149 3.575 3.574c6.705 6.707 18.089 6.72 24.811 0zm128.72-211.812 9.263 9.263c6.784 6.782 17.541-3.673 10.607-10.606l-9.263-9.263 31.142-31.141 9.263 9.263c6.784 6.782 17.541-3.673 10.607-10.606l-9.263-9.263 40.415-40.415 40.528 40.528-123.941 123.937-40.499-40.556zm-125.245 125.243 9.263 9.263c6.784 6.782 17.541-3.673 10.607-10.606l-9.263-9.263 31.142-31.141 9.264 9.264c6.782 6.784 17.539-3.675 10.605-10.607l-9.263-9.263 31.113-31.113 40.528 40.527-116.433 116.431c-.953.952-2.618.916-3.534 0l-36.993-36.992c-.976-.975-.976-2.561 0-3.536zm282.887-313.507c3.211-2.66 6.422-2.66 9.633 0l61.52 61.519c2.66 3.211 2.66 6.422-.001 9.633-3.211 2.66-6.422 2.66-9.633 0l-61.52-61.518c-2.661-3.212-2.66-6.423.001-9.634zm9.475 40.323c7.118 7.118 14.235 14.235 21.353 21.353l-33.91 33.91c-7.118-7.117-14.235-14.235-21.353-21.353zm-74.235 24.435c2.657-2.656 6.979-2.657 9.635 0l61.519 61.518c6.067 6.678-2.797 15.592-9.634 9.634l-61.519-61.518c-2.656-2.657-2.656-6.978-.001-9.634zm-242.16 333.608c-.619-.206-1.218-.455-1.799-.745l-17.755-17.754c-.992-.992-.992-2.606 0-3.598l7.835-7.835 21.353 21.353-7.835 7.835c-.648.647-1.406.744-1.799.744z" fill="#cacaca" data-original="#000000" class=""/><path d="m445.903 442.947c-59.991-19.129-54.253-124.659-119.344-127.723-31.295.002-46.121 23.071-61.816 47.495-14.022 21.82-28.523 44.384-56.594 56.818-68.443 30.32-80.035 81.242-80.495 83.395-.982 4.6 2.631 9.067 7.335 9.067h231.338c9.878-.306 9.949-14.675 0-15h-220.799c12.773-29.572 39.842-50.965 68.697-63.747 32.182-14.256 48.627-39.846 63.137-62.424 14.578-22.685 26.093-40.603 49.196-40.603 46.083.766 54.738 101.489 98.883 120.33 24.331 12.156 57.768 18.14 69.171 46.444h-88.382c-9.887.293-9.935 14.69 0 15h98.271c4.594 0 8.182-4.272 7.387-8.797-6.456-36.772-42.28-50.904-65.985-60.255z" fill="#cacaca" data-original="#000000" class=""/><path d="m202.665 481.373c9.652 0 9.668-15 0-15-9.652 0-9.668 15 0 15z" fill="#cacaca" data-original="#000000" class=""/><path d="m307.961 375.611c-9.652 0-9.668 15 0 15 9.652 0 9.668-15 0-15z" fill="#cacaca" data-original="#000000" class=""/><path d="m348.643 408.602c9.652 0 9.668-15 0-15-9.651 0-9.668 15 0 15z" fill="#cacaca" data-original="#000000" class=""/><path d="m308.133 457.391c9.652 0 9.668-15 0-15-9.652 0-9.668 15 0 15z" fill="#cacaca" data-original="#000000" class=""/><path d="m414.001 466.373c-9.652 0-9.668 15 0 15 9.652 0 9.668-15 0-15z" fill="#cacaca" data-original="#000000" class=""/></g></g></svg>
